<?xml version="1.0" encoding="UTF-8"?><svg id="Layer_2" xmlns="http://www.w3.org/2000/svg" viewBox="0 0 448.35 158.57"><defs><style>.cls-1{fill:#f5f5f0;}.cls-2{fill:#c0ac6f;}</style></defs><g id="Layer_1-2"><g><g><path class="cls-1" d="M140.8,21.61h12.38v27.16h32.97V21.61h12.38V87.05h-12.38v-27.16h-32.97v27.16h-12.38V21.61Z"/><path class="cls-1" d="M254.99,36.99v50.06h-10.97v-6.71h-.15c-3.81,5.01-9.12,7.52-15.93,7.52-2.74,0-5.35-.38-7.84-1.15-2.49-.77-4.73-1.9-6.71-3.41-1.99-1.5-3.71-3.28-5.16-5.34-1.45-2.05-2.57-4.43-3.36-7.11-.78-2.69-1.18-5.55-1.18-8.59,0-3.71,.62-7.18,1.85-10.42,1.24-3.24,2.92-6,5.06-8.27,2.14-2.27,4.69-4.06,7.67-5.36,2.97-1.3,6.16-1.96,9.57-1.96,6.51,0,11.67,2.26,15.48,6.77h.2v-6.01h11.47Zm-15.16,36.21c2.76-2.82,4.13-6.46,4.13-10.9s-1.34-8.16-4.03-11.15c-2.69-2.99-6.07-4.48-10.15-4.48-2.01,0-3.89,.37-5.64,1.1-1.75,.74-3.28,1.76-4.58,3.08-1.3,1.32-2.33,2.97-3.08,4.96s-1.13,4.15-1.13,6.49c0,4.44,1.34,8.08,4.01,10.9,2.67,2.82,6.13,4.23,10.37,4.23,3.97,0,7.34-1.41,10.1-4.23Z"/><path class="cls-1" d="M346.39,36.99l-19.84,50.06h-10.97l-19.94-50.06h12.28l13.08,35.68h.2l12.83-35.68h12.38Z"/><path class="cls-1" d="M393.82,66h-36.48c.74,3.54,2.38,6.33,4.93,8.37,2.56,2.04,5.67,3.06,9.35,3.06,5.18,0,9.34-1.97,12.48-5.91l8.02,6.87c-2.27,2.91-5.19,5.21-8.74,6.91-3.56,1.7-7.67,2.56-12.35,2.56s-9.2-1.05-13.08-3.16c-3.87-2.11-6.93-5.14-9.17-9.1-2.24-3.96-3.36-8.49-3.36-13.6,0-3.77,.62-7.27,1.86-10.47,1.23-3.21,2.94-5.93,5.11-8.17,2.17-2.24,4.76-3.98,7.77-5.24,3.01-1.25,6.23-1.88,9.67-1.88,4.85,0,9.12,1.09,12.83,3.26,3.71,2.17,6.55,5.16,8.52,8.97,1.97,3.81,2.96,8.13,2.96,12.98,0,1.84-.1,3.36-.3,4.56Zm-31.62-16.71c-2.3,1.75-3.86,4.23-4.66,7.44h25.06c-.5-2.04-1.28-3.8-2.33-5.29-1.05-1.49-2.42-2.66-4.11-3.51-1.69-.85-3.6-1.28-5.74-1.28-3.17,0-5.91,.88-8.22,2.63Z"/><path class="cls-1" d="M443.47,41.47c3.26,3.49,4.89,8.86,4.89,16.11v29.51h-11.47v-26.56c0-2.61-.24-4.81-.7-6.61-.47-1.8-1.19-3.23-2.15-4.29-.97-1.05-2.1-1.81-3.38-2.28-1.29-.47-2.83-.7-4.64-.7-1.94,0-3.71,.33-5.31,1-1.6,.67-2.97,1.64-4.11,2.91-1.13,1.27-2.01,2.87-2.63,4.81-.62,1.94-.93,4.11-.93,6.51v25.16h-11.47V36.99h11.47v6.87h.15c2.11-2.47,4.61-4.36,7.52-5.66,2.91-1.3,6-1.96,9.27-1.96,5.75,0,10.25,1.75,13.5,5.24Z"/><path class="cls-1" d="M291.77,36.29v12.78c-1.3-.1-2.46-.15-3.46-.15-2.84,0-5.3,.63-7.39,1.9-2.09,1.27-3.66,2.98-4.71,5.14-1.05,2.16-1.58,4.6-1.58,7.34v23.75h-11.47V36.99h11.47v7.52h.15c1.97-2.67,4.3-4.72,6.99-6.14,2.69-1.42,5.55-2.13,8.59-2.13,.67,0,1.14,.02,1.4,.05Z"/></g><g><g><path class="cls-1" d="M150.18,130.38h-5.8l-1.06,3.06h-2.52l5.3-14.2h2.35l5.33,14.2h-2.53l-1.07-3.06Zm-.73-2.09l-2.16-6.15h-.02l-2.16,6.15h4.33Z"/><path class="cls-1" d="M164.91,133.06c-.88-.33-1.63-.8-2.27-1.41-.64-.61-1.14-1.37-1.51-2.28-.36-.91-.55-1.92-.55-3.02,0-.69,.07-1.35,.22-1.98s.36-1.22,.64-1.76,.62-1.02,1.04-1.46,.88-.81,1.4-1.12,1.1-.55,1.74-.71,1.32-.25,2.04-.25c1.03,0,2.04,.2,3.02,.6s1.82,.98,2.53,1.76l-1.71,1.46c-1.05-1.03-2.33-1.54-3.85-1.54-.64,0-1.23,.12-1.79,.35-.56,.23-1.04,.57-1.44,.99s-.73,.95-.96,1.58-.35,1.32-.35,2.08c0,.94,.19,1.79,.56,2.55s.92,1.35,1.63,1.79c.71,.44,1.53,.66,2.45,.66,1.17,0,2.23-.32,3.16-.95v-2.39h-3.47v-2.17h5.88v5.93c-.66,.55-1.48,.98-2.46,1.3s-2.02,.48-3.1,.48c-1.02,0-1.96-.17-2.84-.5Z"/><path class="cls-1" d="M190.12,133.43l-3.39-5.07h-1.91v5.07h-2.41v-14.2h5.24c.66,0,1.25,.07,1.79,.22s.99,.36,1.37,.63,.69,.6,.95,.99,.44,.81,.56,1.27,.18,.96,.18,1.49c0,1.14-.27,2.07-.82,2.79s-1.31,1.21-2.3,1.49v.04l3.63,5.28h-2.9Zm-5.3-7.23h2.3c.94,0,1.66-.22,2.15-.65s.73-1.02,.73-1.76-.24-1.33-.71-1.76-1.14-.63-2.01-.63h-2.47v4.8Z"/><path class="cls-1" d="M201.58,119.23h2.42v14.2h-2.42v-14.2Z"/><path class="cls-1" d="M223.07,127.18c.5,.62,.76,1.4,.76,2.35,0,.57-.1,1.1-.29,1.57s-.48,.88-.85,1.23-.87,.62-1.46,.81-1.28,.29-2.05,.29h-5.61v-14.2h4.94c1.48,0,2.62,.29,3.42,.88s1.2,1.44,1.2,2.59c0,.7-.17,1.34-.52,1.92s-.87,1.01-1.56,1.28v.04c.85,.21,1.53,.63,2.04,1.25Zm-7.1-2.07h2.3c.31,0,.61-.04,.88-.11s.53-.18,.76-.33,.41-.34,.54-.59,.2-.53,.2-.86c0-.58-.21-1.03-.64-1.36s-1.09-.48-1.99-.48h-2.06v3.72Zm4.57,5.64c.51-.34,.77-.83,.77-1.48s-.24-1.15-.72-1.52-1.17-.55-2.08-.55h-2.54v4.06h2.49c.87,0,1.56-.18,2.08-.51Z"/><path class="cls-1" d="M235.64,133.19c-.69-.27-1.29-.65-1.78-1.15s-.88-1.14-1.15-1.89-.41-1.6-.41-2.55v-8.36h2.41v8.18c0,.75,.13,1.43,.38,2.01s.63,1.05,1.12,1.38,1.07,.5,1.73,.5c.97,0,1.76-.35,2.36-1.04,.6-.7,.9-1.65,.9-2.85v-8.18h2.41v8.36c0,1.85-.5,3.31-1.51,4.38-1.01,1.07-2.39,1.61-4.16,1.61-.84,0-1.61-.13-2.3-.4Z"/><path class="cls-1" d="M254.39,133.03c-.88-.37-1.69-.93-2.42-1.67l1.52-1.87c.5,.61,1.08,1.07,1.72,1.39s1.29,.48,1.92,.48c.77,0,1.35-.15,1.76-.46s.61-.74,.61-1.28c0-.18-.02-.34-.06-.48s-.1-.28-.16-.39-.16-.23-.29-.34-.26-.2-.39-.28-.3-.16-.52-.26-.42-.18-.6-.25-.42-.16-.72-.26c-.35-.12-.66-.24-.92-.34s-.55-.23-.86-.39-.59-.31-.81-.47-.45-.35-.68-.57-.41-.45-.55-.69-.25-.52-.34-.84-.13-.65-.13-1.01c0-.73,.2-1.4,.61-2.01s.95-1.09,1.63-1.44,1.43-.52,2.24-.52c1.65,0,3.21,.58,4.7,1.75l-1.43,1.89c-1.16-.97-2.25-1.45-3.27-1.45-.57,0-1.04,.15-1.41,.45s-.56,.7-.57,1.21c0,.48,.23,.88,.7,1.19,.31,.2,.96,.48,1.95,.87,1.18,.46,1.97,.81,2.38,1.03,.9,.49,1.49,1.12,1.77,1.86,.16,.42,.24,.91,.24,1.46s-.1,1.09-.29,1.56-.45,.88-.78,1.2-.7,.6-1.12,.83-.87,.39-1.32,.5-.91,.16-1.38,.16c-.94,0-1.85-.19-2.73-.56Z"/><path class="cls-1" d="M270.79,119.23h2.42v14.2h-2.42v-14.2Z"/><path class="cls-1" d="M294.55,119.23v14.2h-2.46l-6.87-10.04h-.04v10.04h-2.41v-14.2h2.39l6.93,10.19h.05v-10.19h2.41Z"/><path class="cls-1" d="M304.02,119.23h8.93v2.17h-6.52v3.91h5.27v2.17h-5.27v3.79h6.94v2.17h-9.35v-14.2Z"/><path class="cls-1" d="M323.67,133.03c-.88-.37-1.69-.93-2.42-1.67l1.52-1.87c.5,.61,1.08,1.07,1.72,1.39s1.29,.48,1.92,.48c.77,0,1.35-.15,1.76-.46s.61-.74,.61-1.28c0-.18-.02-.34-.06-.48s-.1-.28-.16-.39-.16-.23-.29-.34-.26-.2-.39-.28-.3-.16-.52-.26-.42-.18-.6-.25-.42-.16-.72-.26c-.35-.12-.66-.24-.92-.34s-.55-.23-.86-.39-.59-.31-.81-.47-.45-.35-.68-.57-.41-.45-.55-.69-.25-.52-.34-.84-.13-.65-.13-1.01c0-.73,.2-1.4,.61-2.01s.95-1.09,1.63-1.44,1.43-.52,2.24-.52c1.65,0,3.21,.58,4.7,1.75l-1.43,1.89c-1.16-.97-2.25-1.45-3.27-1.45-.57,0-1.04,.15-1.41,.45s-.56,.7-.57,1.21c0,.48,.23,.88,.7,1.19,.31,.2,.96,.48,1.95,.87,1.18,.46,1.97,.81,2.38,1.03,.9,.49,1.49,1.12,1.77,1.86,.16,.42,.24,.91,.24,1.46s-.1,1.09-.29,1.56-.45,.88-.78,1.2-.7,.6-1.12,.83-.87,.39-1.32,.5c-.46,.1-.91,.16-1.38,.16-.94,0-1.85-.19-2.73-.56Z"/><path class="cls-1" d="M341.49,133.03c-.88-.37-1.69-.93-2.42-1.67l1.52-1.87c.5,.61,1.08,1.07,1.72,1.39s1.29,.48,1.92,.48c.77,0,1.35-.15,1.76-.46s.61-.74,.61-1.28c0-.18-.02-.34-.06-.48s-.1-.28-.16-.39-.16-.23-.29-.34-.26-.2-.39-.28-.3-.16-.52-.26-.42-.18-.6-.25-.42-.16-.72-.26c-.35-.12-.66-.24-.92-.34s-.55-.23-.86-.39-.59-.31-.81-.47-.45-.35-.68-.57-.41-.45-.55-.69-.25-.52-.34-.84-.13-.65-.13-1.01c0-.73,.2-1.4,.61-2.01s.95-1.09,1.63-1.44,1.43-.52,2.24-.52c1.65,0,3.21,.58,4.7,1.75l-1.43,1.89c-1.16-.97-2.25-1.45-3.27-1.45-.57,0-1.04,.15-1.41,.45s-.56,.7-.57,1.21c0,.48,.23,.88,.7,1.19,.31,.2,.96,.48,1.95,.87,1.18,.46,1.97,.81,2.38,1.03,.9,.49,1.49,1.12,1.77,1.86,.16,.42,.24,.91,.24,1.46s-.1,1.09-.29,1.56-.45,.88-.78,1.2-.7,.6-1.12,.83-.87,.39-1.32,.5-.91,.16-1.38,.16c-.94,0-1.85-.19-2.73-.56Z"/></g><g><path class="cls-1" d="M143.22,158.02c-.88-.37-1.69-.93-2.42-1.67l1.52-1.87c.5,.61,1.08,1.07,1.72,1.39,.65,.32,1.29,.48,1.92,.48,.77,0,1.35-.15,1.76-.46s.61-.74,.61-1.28c0-.18-.02-.34-.06-.48s-.1-.28-.16-.39-.16-.23-.29-.34-.26-.2-.39-.28-.3-.16-.52-.26-.42-.18-.6-.25-.42-.16-.72-.26c-.35-.12-.66-.24-.92-.34s-.55-.23-.86-.39-.59-.31-.81-.47-.45-.35-.68-.57-.41-.45-.55-.69-.25-.52-.34-.84-.13-.65-.13-1.01c0-.73,.2-1.4,.61-2.01s.95-1.09,1.63-1.44,1.43-.52,2.24-.52c1.65,0,3.21,.58,4.7,1.75l-1.43,1.89c-1.16-.97-2.25-1.45-3.27-1.45-.57,0-1.04,.15-1.41,.45-.37,.3-.56,.7-.57,1.21,0,.48,.23,.88,.7,1.19,.31,.2,.96,.48,1.95,.87,1.18,.46,1.97,.81,2.38,1.03,.9,.49,1.49,1.12,1.77,1.86,.16,.42,.24,.91,.24,1.46s-.1,1.09-.29,1.56-.45,.88-.78,1.2-.7,.6-1.12,.83-.87,.39-1.32,.5-.91,.16-1.38,.16c-.94,0-1.85-.19-2.73-.56Z"/><path class="cls-1" d="M163.82,158.25c-.71-.2-1.36-.49-1.97-.89s-1.12-.88-1.57-1.44-.79-1.23-1.03-2.01-.37-1.62-.37-2.53c0-.81,.1-1.58,.3-2.32s.5-1.4,.9-2.01,.89-1.13,1.45-1.57,1.23-.79,2.01-1.04,1.61-.37,2.5-.37c1.03,0,2.03,.22,3.01,.67s1.84,1.13,2.58,2.05l-1.78,1.5c-.48-.59-1.05-1.06-1.71-1.42s-1.37-.53-2.1-.53c-.91,0-1.72,.21-2.42,.62s-1.25,1.01-1.64,1.77-.59,1.64-.59,2.64,.2,1.81,.6,2.55,.95,1.32,1.65,1.73,1.5,.61,2.4,.61c.77,0,1.48-.17,2.13-.52,.65-.35,1.21-.82,1.69-1.41l1.78,1.51c-.65,.82-1.45,1.47-2.4,1.96-.95,.49-2.01,.73-3.2,.73-.77,0-1.52-.1-2.23-.29Z"/><path class="cls-1" d="M180.1,144.22h2.41v6.34h6.42v-6.34h2.41v14.2h-2.41v-5.69h-6.42v5.69h-2.41v-14.2Z"/><path class="cls-1" d="M204.44,158.02c-.9-.37-1.66-.87-2.28-1.51s-1.11-1.41-1.46-2.3c-.35-.89-.53-1.86-.53-2.9s.18-1.99,.53-2.88c.35-.89,.84-1.66,1.46-2.3,.62-.64,1.38-1.15,2.28-1.51s1.87-.55,2.92-.55,1.96,.18,2.85,.53c.88,.35,1.64,.84,2.27,1.47s1.13,1.39,1.49,2.3,.54,1.89,.54,2.96-.18,2.06-.54,2.96-.86,1.67-1.49,2.3-1.39,1.12-2.27,1.47c-.88,.35-1.83,.53-2.85,.53s-2.02-.18-2.92-.55Zm4.75-2.08c.57-.25,1.06-.6,1.47-1.03s.74-.97,.98-1.59,.36-1.29,.36-2.01-.12-1.38-.36-2-.57-1.15-.98-1.59-.9-.78-1.47-1.03c-.57-.25-1.18-.38-1.83-.38s-1.31,.13-1.89,.39-1.08,.61-1.48,1.06-.72,.98-.95,1.59-.35,1.26-.35,1.95,.12,1.34,.35,1.96,.55,1.15,.95,1.59,.9,.8,1.48,1.06,1.22,.39,1.89,.39,1.26-.12,1.83-.37Z"/><path class="cls-1" d="M226.96,158.02c-.9-.37-1.66-.87-2.28-1.51s-1.11-1.41-1.46-2.3-.53-1.86-.53-2.9,.18-1.99,.53-2.88,.84-1.66,1.46-2.3c.62-.64,1.38-1.15,2.28-1.51s1.87-.55,2.92-.55,1.96,.18,2.85,.53c.88,.35,1.64,.84,2.27,1.47s1.13,1.39,1.49,2.3,.54,1.89,.54,2.96-.18,2.06-.54,2.96-.86,1.67-1.49,2.3-1.39,1.12-2.27,1.47-1.83,.53-2.85,.53-2.02-.18-2.92-.55Zm4.75-2.08c.57-.25,1.06-.6,1.47-1.03s.74-.97,.98-1.59c.24-.62,.36-1.29,.36-2.01s-.12-1.38-.36-2-.57-1.15-.98-1.59-.9-.78-1.47-1.03c-.57-.25-1.18-.38-1.83-.38s-1.31,.13-1.89,.39-1.08,.61-1.48,1.06-.72,.98-.95,1.59-.35,1.26-.35,1.95,.12,1.34,.35,1.96,.55,1.15,.95,1.59,.9,.8,1.48,1.06,1.22,.39,1.89,.39,1.26-.12,1.83-.37Z"/><path class="cls-1" d="M245.86,144.22h2.41v12.03h6.58v2.17h-8.99v-14.2Z"/></g></g><g><path class="cls-1" d="M98.08,97.05v12.4s-19.39-8.72-19.39-8.72c-8.22-3.7-13.5-11.87-13.5-20.87v-12.4s19.39,8.72,19.39,8.72c8.22,3.7,13.5,11.87,13.5,20.87Z"/><path class="cls-1" d="M65.2,29.59v12.4s19.39-8.72,19.39-8.72c8.22-3.7,13.5-11.87,13.5-20.87V0s-19.39,8.72-19.39,8.72c-8.22,3.7-13.5,11.87-13.5,20.87Z"/><path class="cls-1" d="M13.5,33.28l19.39,8.72v-12.4c0-9.01-5.28-17.18-13.5-20.87L0,0V12.4C0,21.41,5.28,29.58,13.5,33.28Z"/><path class="cls-1" d="M32.89,79.86v-12.4s-19.39,8.72-19.39,8.72C5.28,79.87,0,88.05,0,97.05v12.4s19.39-8.72,19.39-8.72c8.22-3.7,13.5-11.87,13.5-20.87Z"/><rect class="cls-2" x="2.29" y="47.73" width="93.49" height="14"/></g></g></g></svg>